# xmcd CD database file
#
# Track frame offsets:
#	150
#	10362
#	20744
#	36540
#	47061
#	64988
#	75298
#	88084
#	103088
#	113901
#	124628
#	135396
#	150729
#	162065
#	172702
#
# Disc length: 2414 seconds
#
# Revision: 0
# Processed by: cddbd v1.5.2PL0 Copyright (c) Steve Scherf et al.
# Submitted via: CDex 1.70beta2
#
DISCID=b9096c0f
DTITLE=County Love - Country Love
DYEAR=2011
DGENRE=Country
TTITLE0=Broken Promises - WillNelson
TTITLE1=Alone with You - Faron Young
TTITLE2=Blanket on the Ground - Billie Joe Spears
TTITLE3=Burnin' Memories - Waylon Jennings
TTITLE4=A Place in the Country - Bill Anderson
TTITLE5=Ann (Don't Go Runnin') - Tommy Overstreet
TTITLE6=Crazy Dreams - Conway Twitty
TTITLE7=Deck of Cards - Bill Anderson
TTITLE8=Hartbreak, Tennessee - Johnny Paycheck
TTITLE9=Honky Tonk Merry Go Round - PAtsy Cline
TTITLE10=I Love You More - Jim Reeves
TTITLE11=I'll Paint You A Song - Roy Clark
TTITLE12=Oaklahoma Hills - Hank Thompson
TTITLE13=Please Help Me I'm Fallni' - Hank Lcoklin
TTITLE14=Slowly - Webb Pierce
EXTD=YEAR: 2011
EXTT0=
EXTT1=
EXTT2=
EXTT3=
EXTT4=
EXTT5=
EXTT6=
EXTT7=
EXTT8=
EXTT9=
EXTT10=
EXTT11=
EXTT12=
EXTT13=
EXTT14=
PLAYORDER=
